<svg xmlns="http://www.w3.org/2000/svg" viewBox="0 0 611.44 584.58"><defs><style>.cls-1{fill: #b79871;}</style></defs><title>logoMonkey</title><g id="Camada_2" data-name="Camada 2"><g id="MONKEY-RED"><path class="cls-1" d="M611.16,361.13c0-.81-.07-1.71-.1-2.6-.07-1.85-.14-3.76-.29-5.77,0-.24,0-.48-.07-.72l-1-7.77a119.92,119.92,0,0,0-2.3-13.88c-.24-1.13-.47-2.25-.69-3.38l-.06-.27a184.49,184.49,0,0,0-27.63-64.28,187.61,187.61,0,0,0-48.9-49.87,195.68,195.68,0,0,0-52.12-25.49,79.62,79.62,0,0,0,2.05-26.44,77,77,0,0,0-2.71-14.5c-.09-.29-.18-.58-.28-.86-.3-.83-.58-1.66-.86-2.49a73.1,73.1,0,0,0-4.16-10.38,80.84,80.84,0,0,0-30-32.62,15,15,0,0,0-1.34-3.26,196.1,196.1,0,0,0-34.52-44.33A189.75,189.75,0,0,0,243.9,2.65a14.71,14.71,0,0,0-2.49.66,15.61,15.61,0,0,0-2.87.29,189,189,0,0,0-58.17,22,15,15,0,0,0-3.84-.5,15.4,15.4,0,0,0-6.15,1.29,191.56,191.56,0,0,0-17.73,8.89c-2.52,1.41-4.88,2.9-6.86,4.17-2.28,1.44-4.35,2.75-6.51,4.25-3.44,2.34-7,4.94-11,8.1A16.08,16.08,0,0,0,126,53.68l-.38.34L123,56.24c-.26.22-.52.45-.77.7a14.2,14.2,0,0,0-1.29,1,15.67,15.67,0,0,0-1.51,1.43l-4.11,3.77c-.27.25-.54.51-.79.78l-4.17,4.17c-.17.16-.33.34-.49.51l-4.26,4.68a129.57,129.57,0,0,0-9.11,10.88A180.27,180.27,0,0,0,81,107.31,190.6,190.6,0,0,0,69,132.62l-.11.27c-1.51,4-3.21,8.59-4.55,13.41l-1.76,6.11a2.17,2.17,0,0,0-.07.24c-.43,1.57-.78,3.07-1.12,4.51-.11.45-.21.9-.32,1.34A134.21,134.21,0,0,1,50.9,179.72a133.33,133.33,0,0,1-14.2,19.64l-.08.09c-2.31,2.68-5,5.45-8.37,8.71l-.09.09c-.66.64-1.36,1.27-2,1.89-.9.82-1.91,1.74-2.93,2.74a75,75,0,0,0-5.67,6.17A78.22,78.22,0,0,0,2.35,248.61a1.74,1.74,0,0,1-.05.22,78.76,78.76,0,0,0-2.29,16,15.3,15.3,0,0,0,.82,5.46c0,.5-.09,1-.08,1.49a77.14,77.14,0,0,0,6.54,28.71,75.66,75.66,0,0,0,12.18,19.06c1.06,1.24,2.1,2.28,2.94,3.11l.42.41a15.27,15.27,0,0,0,1.26,1.51h0c.35.36.71.71,1.1,1l2.91,3.22.18.2c.32.35.64.7.95,1.06l.08.08L33,334.23a14.91,14.91,0,0,0,1.13,1.12,15.33,15.33,0,0,0,1.33,2c1.54,1.9,3,3.77,4.32,5.57s2.85,3.94,4.2,5.94c2.43,3.6,4.83,7.49,7.13,11.57a15.44,15.44,0,0,0,2.35,3.13c.05.09.08.19.12.28,2.28,4.45,4.34,8.91,6.11,13.27,1.16,3,2.2,6.18,3.31,9.51q1,2.91,2,5.81a122.07,122.07,0,0,1,3.64,14.36c.55,2.72,1,5.67,1.53,9.29a15.27,15.27,0,0,0,3,7.16c-.08.54-.16,1-.23,1.58-.72,5.07-1.25,9.76-1.62,14.34l-.11,1.13c-.34,3.76-.7,7.63-.94,11.59a14.45,14.45,0,0,0-.17,3c-.05,1.23-.09,2.45-.14,3.67-.21,5.73-.43,11.66-.3,17.73.1,8,.44,15.36,1,22.61a340.32,340.32,0,0,0,6.54,44.76,15.31,15.31,0,0,0,6.69,9.66l10.32,6.63c.42.27.86.52,1.31.75l1.43.77c3.32,1.91,6.61,3.5,9.44,4.85a15.41,15.41,0,0,0,4.41,1.33c1.15.16,2.23.28,3.27.38a15.28,15.28,0,0,0,9.16,8.61,145.68,145.68,0,0,0,47.3,8c3.75,0,7.52-.16,11.21-.46a144.18,144.18,0,0,0,56.88-16.84l2.84-1.51c.32-.17.63-.34.93-.53l2.83-1.77.15-.1,1.87-1.17c1.31-.82,2.67-1.67,4.09-2.63.2-.13.4-.28.59-.42.8-.6,1.61-1.19,2.42-1.78a111.85,111.85,0,0,0,8.91-7,116.23,116.23,0,0,0,8.67-8.1l1.79-1.79.29-.29c1.29-1.36,2.43-2.69,3.44-3.87.45-.53.91-1.07,1.37-1.59l.11-.13L281,532c.24-.28.47-.57.69-.86l2-2.63A142.67,142.67,0,0,0,307,482.34a15.31,15.31,0,0,0-4.44-16.22,14.91,14.91,0,0,0,2-3,187.16,187.16,0,0,0,15.54-47c.25-1.32.47-2.66.69-4a191.71,191.71,0,0,0,40.36,45.07c4,3.31,8.37,6.56,13.75,10.23l.25.16c3.09,2,6.19,3.88,9.18,5.67,1.54.92,3.08,1.83,4.6,2.77a15.12,15.12,0,0,0,2.45,1.22,56.79,56.79,0,0,0,20.69,3.83h.74A57.4,57.4,0,0,0,423.39,480a37.45,37.45,0,0,0,4.91-1.23c-.1.26-.18.52-.28.78A301.35,301.35,0,0,1,415.39,509c-2.56,5.18-5,9.82-7.43,14.16-1.67,3-3.43,5.87-5.3,8.94-1,1.7-2.06,3.39-3.08,5.11a15.3,15.3,0,0,0,12.7,23.11c2.32.07,4.65.11,6.93.11a196.74,196.74,0,0,0,27.93-1.91c2.84-.41,5.85-.87,8.93-1.52l.3-.06,7.77-1.79a148.51,148.51,0,0,0,17.27-4.77A191.5,191.5,0,0,0,609.52,396.3c.92-6.76,1.45-12.27,1.68-17.38A153.23,153.23,0,0,0,611.16,361.13ZM458.44,139.35a84.15,84.15,0,0,1,4.25,11.08A61.31,61.31,0,0,1,464.87,162a65,65,0,0,1-2.09,23.05l-7.33,1.18-3.94.64-3.88.92c-5.17,1.25-10.37,2.33-15.43,4a141.7,141.7,0,0,0-14.93,5.58c-2.44,1.05-4.91,2-7.32,3.14l-6.36,3.15a118.31,118.31,0,0,0-8.91-19.09A122.77,122.77,0,0,0,380,164.87a117.59,117.59,0,0,0-18.34-16.33A120.94,120.94,0,0,0,344,137.9c.12-.24.24-.48.37-.72a64.66,64.66,0,0,1,40.29-31.63,56.54,56.54,0,0,1,13-1.9,39,39,0,0,1,5.07-.15c1.42,0,2.85.11,4.27.26l.23,0a64.61,64.61,0,0,1,51.18,35.57Zm-70.8,73.21a182.93,182.93,0,0,0-16.42,12.22c-1.32-.68-2.61-1.43-3.89-2.2a64.35,64.35,0,0,1-25.1-81,117.52,117.52,0,0,1,10.94,6.17c2.43,1.64,4.83,3.35,7.13,5.14a124.27,124.27,0,0,1,16.3,15.3,129.79,129.79,0,0,1,13.27,17.95,125.2,125.2,0,0,1,9.41,19.3l-10,6-.76,0a.93.93,0,0,0-.9.91ZM241.5,18.61a173.66,173.66,0,0,1,20.6,47.71,177,177,0,0,1,5.61,52.35,175,175,0,0,1-34.6,97.38,69.84,69.84,0,0,0-21.69-13.72A70.86,70.86,0,0,0,158,203.57a70,70,0,0,0-41.2,57.84c-.41-.88-.82-1.77-1.24-2.65,0,0-4.32-10.59-4.4-10.74a175.53,175.53,0,0,1-9.9-58.18c0-2.74,0-5.5.19-8.23l.64-8.22.32-4.11.6-4.09c.43-2.7.73-5.49,1.27-8.11a173.91,173.91,0,0,1,9.15-31.64c1.92-4.82,4.07-9.56,6.4-14.2.28-.54.54-1.08.83-1.62.63-1.23,1.3-2.43,2-3.64,1.07-1.94,2.15-3.87,3.29-5.77.29-.49.59-1,.89-1.47A174.78,174.78,0,0,1,241.5,18.61ZM182.58,267.75A44.69,44.69,0,0,0,176,291.12a44.07,44.07,0,0,0,24.3,39.21v.05s8.72,3.52,12.42,4.06a43.91,43.91,0,0,0,30.89-6.17c-.57,2.31-1.09,4.64-1.82,6.92a64,64,0,0,1-7.9,15.8c-1.56,2.19-3.3,4.26-5,6.36a170.37,170.37,0,0,1-38.29-15.76,174.53,174.53,0,0,1-36.49-27.19c-2.73-2.66-5.39-5.38-7.91-8.23l-3.77-4.28-3.58-4.43a112,112,0,0,1-6.76-9.2l-3.24-4.69-2.64-4.23a77.75,77.75,0,0,1,6.94-9,64.93,64.93,0,0,1,11.67-10c1.07-.71,2.16-1.39,3.27-2h0c.47-.28.95-.52,1.43-.78a64.46,64.46,0,0,1,9.06-4A63.35,63.35,0,0,1,169,250.92a102.79,102.79,0,0,1,10.68-.93,64.71,64.71,0,0,1,18.54,2.63A44.3,44.3,0,0,0,182.58,267.75Zm22.23-12.9a63.14,63.14,0,0,1,15.76,8.82,69.88,69.88,0,0,0-26.41-2.13c.77-.7,1.57-1.38,2.4-2A50.58,50.58,0,0,1,204.81,254.85Zm28.48,102.77c1.4-1.61,2.73-3.3,4-5.05h0a62,62,0,0,0,7.11-12.51,66.86,66.86,0,0,0,5.19-22.4,65.87,65.87,0,0,0-1.68-19c-.21-.95-.45-1.9-.71-2.84-.11-.41-.2-.83-.32-1.23l0-.1c-.48-1.6-1-3.18-1.63-4.75l-.39-1a69.78,69.78,0,0,0-5.21-10.41,65.91,65.91,0,0,1,14.06,14A73.49,73.49,0,0,1,260,303.13a64,64,0,0,1,4.18,11.81,65.6,65.6,0,0,1,1.17,25,66.65,66.65,0,0,1-7.91,22.83,149.6,149.6,0,0,1-24.54-4.34l-.24-.07Zm18.64-87.87v.5c0,1-.12,2-.2,3,0,.56-.08,1.11-.15,1.67-.09.85-.21,1.69-.33,2.53s-.26,1.67-.42,2.51c-.09.49-.19,1-.29,1.46l0,0v0c-1.2-1.22-2.46-2.38-3.76-3.51v0a66.09,66.09,0,0,0-8.14-6.09,64.65,64.65,0,0,0-6.7-3.72l-.33-.25a.69.69,0,0,0-.17-.1c-.25-.12-.51-.21-.76-.33-.25-.28-.49-.58-.73-.84a61.73,61.73,0,0,0-7.22-6.87,62.44,62.44,0,0,0-17.31-10,1,1,0,0,0-.48-.06h0l-.13,0a68.85,68.85,0,0,0-20.61-4.22,63.84,63.84,0,0,0-10.44.36,67.41,67.41,0,0,0-28.31,8.91A69.31,69.31,0,0,0,123.7,275l-.6-1.07L122,272c-.1-.2-.22-.4-.33-.6l-.2-.35v0l-.06-.12c-.07-.12-.13-.25-.19-.37A67.07,67.07,0,0,1,125,245.5a65.15,65.15,0,0,1,47.63-41.81c1.22-.25,2.45-.49,3.68-.67l.42-.07c1.55-.22,3.12-.37,4.69-.48l.84-.05c1.24-.07,2.48-.1,3.72-.1a66.2,66.2,0,0,1,46.86,19.31l.65.64s4.32,4.67,6.18,7.25a50.21,50.21,0,0,1,3.46,5.49c1.07,1.89,2.11,3.8,3,5.74A58.49,58.49,0,0,1,250.28,253a64.14,64.14,0,0,1,1.63,12.88v0C252,267.2,252,268.47,251.93,269.75ZM17.14,252.52a62.68,62.68,0,0,1,12.21-23.77,59.29,59.29,0,0,1,4.55-4.95c1.59-1.56,3.33-3,4.94-4.6,3.26-3.12,6.42-6.35,9.37-9.77A147.9,147.9,0,0,0,64.07,187.5,149.33,149.33,0,0,0,75.67,163l0-.06v0c.51-2.09,1-4.19,1.54-6.26l1.78-6.2c1.15-4.15,2.66-8.19,4.16-12.21A178.32,178.32,0,0,1,94.24,115a166.74,166.74,0,0,1,14.32-21.38,113,113,0,0,1,8.26-9.89l4.33-4.76,4.58-4.57-.09.07,5-4.55s0-.1.06-.14.12,0,.16-.06l.21-.19s0-.07.05-.1h0s.06,0,.09,0l1.33-.93a1.1,1.1,0,0,0,.37-.54L136,65.26l-.11.08a4.13,4.13,0,0,0,.69-.63l-.25.29c3.8-3,7.62-5.93,11.61-8.64,2-1.38,4-2.67,6.06-4s4.08-2.59,6.19-3.76a170.92,170.92,0,0,1,16.35-8.2,179.32,179.32,0,0,0-69.87,90.25c-7,20-10,41.19-9.78,62.28a176,176,0,0,0,11.66,59.5,67.73,67.73,0,0,0-20.43-9.94,70.7,70.7,0,0,0-28.31-2.19,69.69,69.69,0,0,0-26.75,9.38A68.8,68.8,0,0,0,15.3,265.42,63.89,63.89,0,0,1,17.14,252.52Zm27.35,70.42c-.06.34-.1.69-.15,1l-3.66-4.05-1.21-1.34-4-4.4-.23-.24,0,.07h-.11l0,0h0l.11-.06,0,0c-1.33-1.54-2.88-2.85-4.18-4.39a55.46,55.46,0,0,1-3.76-4.74,61.74,61.74,0,0,1-3.56-5.61h0l0-.11c-.87-1.55-1.67-3.14-2.38-4.76a62,62,0,0,1-2.44-6.54c-2-5.68-3.74-12.22-2.81-16.5,0,0,.33-.45.95-1.22.24-.3.53-.67.86-1.06a65.61,65.61,0,0,1,10-10.08c5.24-4.41,11.93-8.79,19.45-10.87,0,0,22.78-8.74,42.78,0,0,0,11,3.64,18.28,10.11-.39,2.69-.84,5.36-1.33,8-.85.06-1.7.12-2.53.23a63.2,63.2,0,0,0-6.27,1.09,66.2,66.2,0,0,0-6.52,1.81h0s-3.77,1.22-5.39,1.85l-.13.05h0l0,0A44.27,44.27,0,0,0,82,273a68.92,68.92,0,0,0-8.55,5,67.42,67.42,0,0,0-7.72,6.18c-1.17,1.13-7.51,7.77-7.53,7.9-1.21,1.55-2.39,3.12-3.47,4.78a67.47,67.47,0,0,0-5.42,9.9,54.55,54.55,0,0,0-3.62,10.67Zm61.61-51.68q-.55,2.58-1.19,5.16a26.23,26.23,0,0,0-3.7-3c-.61-.42-1.26-.8-1.91-1.17,1.66-.33,3.32-.62,5-.82l.78-.06C105.42,271.29,105.76,271.29,106.1,271.26ZM64.41,352.9c-2.43-4.3-5-8.52-7.77-12.61q-2.22-3.29-4.58-6.47c-1.52-2.07-3.14-4.14-4.71-6.09.22-1.57.47-3.11.8-4.63l.93-3.34c.38-1.28.65-2.6,1.07-3.87s.9-2.52,1.42-3.76a69.94,69.94,0,0,1,6.21-11.69,26.93,26.93,0,0,0,15.33,21h0A27.63,27.63,0,0,0,80,323.68a29,29,0,0,0,5.58.41q-2.31,3.9-4.74,7.72-4.08,6.18-8.68,12C69.7,346.93,67,349.88,64.41,352.9Zm56.32,200.41-2.62-.26c-1.75-.17-3.49-.31-5.22-.56-2.92-1.38-5.8-2.79-8.58-4.4h0l-1.87-1h0l-10.32-6.63a325.27,325.27,0,0,1-6.25-42.78c-.58-7.2-.88-14.43-1-21.65s.24-14.43.47-21.66c0,0,0-.07,0-.11a.72.72,0,0,0,.09-.2c.24-4.55.68-9.06,1.09-13.57s.89-9,1.52-13.5c1.23-8.6,2.7-17.17,4.54-25.65a69.42,69.42,0,0,0,50.84-4.84,73.25,73.25,0,0,0,20.43-16.2,72.21,72.21,0,0,0,12.6-21c.15-.44.32-.88.47-1.32a284.44,284.44,0,0,1,46.67,31.64l.23.18c.35.28.68.58,1,.86,7.75,6.44,14.69,12.75,20.58,18.43,2.35,2.27,4.6,4.56,6.8,6.84h0c2,2.12,4,4.21,5.9,6.3a2.09,2.09,0,0,1,.2.22c2,2.19,3.94,4.37,5.77,6.49.37.42.75.83,1.12,1.26.5.59,1,1.19,1.48,1.79.84,1,1.64,1.95,2.43,2.92,1.44,1.74,2.81,3.44,4.11,5.08q1.4,1.77,2.68,3.43c.66.86,1.32,1.71,2,2.57,6.66,8.8,10.44,14.68,10.44,14.68-6.85,14.59-17.32,27.68-26.46,37.44-.84.92-1.67,1.85-2.52,2.76a162.4,162.4,0,0,1-13.43,12.54l-1,.84c-1.15,1-1.81,1.49-1.81,1.49l-.73.55a180.73,180.73,0,0,1-22.5,15.2,177.68,177.68,0,0,1-22.62,10.81c-1.25.46-2.51.91-3.77,1.35a117.68,117.68,0,0,1-20.23,5.9,172.69,172.69,0,0,1-49.87,4A25.84,25.84,0,0,1,120.73,553.31ZM93.13,396.85c1.74-7.57,3.79-15.05,6.07-22.47q1.8-5.46,3.74-10.86c3.87-10.78,8.39-21.31,13.25-31.67l14.07,4.77c4.94,1.79,9.84,3.67,14.7,5.69q14.22,5.9,27.83,13.2a62,62,0,0,1-3.53,8.71l-.2.39a63.27,63.27,0,0,1-7.22,11,64.63,64.63,0,0,1-68.71,21.21ZM271.44,519.36l-2,2.67-2.18,2.52c-1.47,1.66-2.86,3.4-4.39,5-3.16,3.12-6.22,6.36-9.68,9.16-3.28,3-7,5.52-10.52,8.19-1.84,1.24-3.76,2.38-5.63,3.58l-2.83,1.77-2.95,1.56q-.92.51-1.86,1c-.57.3-1.16.59-1.74.88a125.48,125.48,0,0,1-32.1,11l-.36.08h0a134.09,134.09,0,0,1-14.8,2.09,129.84,129.84,0,0,1-52.3-6.71.84.84,0,0,0,.18,0h.59A167.64,167.64,0,0,0,178.58,559c1.38-.29,2.76-.63,4.14-1l-.42,0a226.89,226.89,0,0,0,34.11-11.57c3.07-1.43,6.11-2.92,9.09-4.54a189.73,189.73,0,0,0,40.08-29.86,174,174,0,0,0,26.9-34.47A128.5,128.5,0,0,1,271.44,519.36ZM308,384.17c-.06,1.95,0,3.9-.18,5.85a171.29,171.29,0,0,1-17,66.41,322.66,322.66,0,0,0-37.85-46.29c-3.71-3.85-7.73-7.37-11.68-10.95s-7.89-7.2-11.9-10.71c-8.15-6.87-42.51-30.21-51.21-35-.08-.24-20.86-11-31.43-15.47q-7.94-3.3-16-6.18l-16.3-5.37a.69.69,0,0,0-.85.37q-4.39,9.15-8.22,18.58c-3.7,8.87-7.07,17.89-10,27.06q-3.72,11.73-6.54,23.71c-1.24,5.93-2.38,11.89-3.52,17.84-.47-3.45-1-6.88-1.7-10.29a135.43,135.43,0,0,0-4.18-16.31c-1.84-5.3-3.48-10.67-5.49-15.91q-3-7.47-6.72-14.64c2.8-3.24,5.7-6.41,8.38-9.74q4.23-5.33,8.06-10.94c2.57-3.71,4.85-7.66,7.18-11.51.19-.29.34-.6.51-.9l.52-.83s0-.05,0-.07a.43.43,0,0,0,.09-.1l1.48-2.58a1.16,1.16,0,0,0,.08-.42c.18-.37.37-.73.56-1.09,1-2,2.15-4,3.06-6.06l5.42-12.45c.59-1.73,1.21-3.44,1.82-5.16l1-2.63a110.76,110.76,0,0,0,3.34-11.32c.57-2.29,1.1-4.59,1.62-6.9.17-.62.27-1.26.41-1.89l.15-.55c.11-.42.23-.85.35-1.27.06-.11.16-.19.18-.31v0c.09-.46.16-.93.24-1.39s.25-1,.33-1.45a1.49,1.49,0,0,0,0-.21.7.7,0,0,1,0-.14c.18-1.12.35-2.25.54-3.38v-.08c1.26,2.67,2.51,5.36,3.84,8,.84,1.71,1.86,3.36,2.78,5.05,0,0,9.17,14.52,12.36,19.14,3.41,4.51,7,8.95,10.8,13.15a175.35,175.35,0,0,0,25,23,179.66,179.66,0,0,0,28.9,17.88,175.66,175.66,0,0,0,31.76,12l-.08,0c4.28,1.1,8.3,1.91,12.45,2.88a57.57,57.57,0,0,0,6.26,1.05l6.28.89c2.1.24,4.18.69,6.3.77l6.33.33c4.21.23,8.41.5,12.65.39a123.78,123.78,0,0,0,29.42-.83l.46,11.14C308.13,380.27,308,382.22,308,384.17Zm-1.32-28.94h0v.31h0l.91,7.56a121.14,121.14,0,0,1-29.35.73h-.1c-5.66-.09-11.34-.31-17-.77a56.8,56.8,0,0,0,4.72-9.93c.8-2.43,1.65-4.86,2.36-7.32a67,67,0,0,0,1.46-7.57,67.36,67.36,0,0,0-16.25-53.7,68.7,68.7,0,0,0,1.7-8.87,64.28,64.28,0,0,0,.44-10v0a67,67,0,0,0-1.5-13c-.55-2.35-1.14-4.71-1.86-7a.56.56,0,0,0,0-.12c-.28-.91-.59-1.82-.92-2.72-.24-.65-.52-1.28-.79-1.92-.1-.24-.19-.5-.3-.74l-.09-.19c-.11-.23-.19-.47-.31-.71-.95-2.06-2-4.06-3.1-6a53.54,53.54,0,0,0-3.55-5.82,68.36,68.36,0,0,0-6.9-8.31,177.92,177.92,0,0,0,32.69-72.52c.22-1.1.4-2.2.6-3.3s.42-2.19.6-3.29c.27-1.65.49-3.3.71-5,.09-.6.19-1.2.26-1.81.19-1.56.34-3.12.49-4.68.3-3,.55-6,.69-9.05,0-.82,0-1.63.06-2.44a179.87,179.87,0,0,0-25.86-99.33A173.91,173.91,0,0,1,395.63,63.24a182,182,0,0,1,30.84,39.21l.44.19.55.92-.46-.2.46.77c-.6-.25-1.18-.55-1.78-.78a69.18,69.18,0,0,0-50.77.69c-1,.39-1.86.88-2.8,1.31l-.49.23q-2.7,1.28-5.27,2.79l-.62.37c-1.63,1-3.2,2-4.74,3.13l-.88.64c-1.39,1-2.74,2.14-4.06,3.28l-1.2,1.06q-1.71,1.56-3.31,3.24c-.51.52-1,1-1.51,1.59-.89,1-1.75,2-2.58,3.06-.59.73-1.17,1.45-1.73,2.21s-1.3,1.83-1.92,2.77-1.25,1.88-1.83,2.85c-.47.8-.91,1.62-1.36,2.44-.21.39-.44.77-.65,1.17a.76.76,0,0,0-.48.38,67.3,67.3,0,0,0-5.6,45,1.62,1.62,0,0,0,0,.19c.17.78.37,1.56.58,2.34.11.44.22.87.34,1.3s.27.88.4,1.32.26.9.4,1.34c.07.21.16.4.23.61s.12.36.18.54c.44,1.26.92,2.51,1.44,3.74.35.86.72,1.7,1.11,2.54.32.69.66,1.36,1,2a69,69,0,0,0,28.74,29.65l-.38.35.38.21a182.9,182.9,0,0,0-24.64,26.2A180,180,0,0,0,312,319.17,182.18,182.18,0,0,0,306.68,355.23Zm121.49,107.3a43.63,43.63,0,0,1-7.59,2.38A42.59,42.59,0,0,1,396.93,463c-4.47-2.74-9-5.33-13.42-8.2s-8.61-6.06-12.66-9.41a181.37,181.37,0,0,1-22.62-22,178.29,178.29,0,0,1-31.91-54.18c.05-2.2.17-4.39.29-6.61s.33-4.4.55-6.6c.42-4.2,1-8.37,1.73-12.52q5.57.34,11.09,1a166.65,166.65,0,0,1,16.73,3l6.92,1.75c2.31.64,4.58,1.32,6.85,2.05q6.58,2.13,13,4.78a177.81,177.81,0,0,0,22.62,46.81,182.76,182.76,0,0,0,35.4,38.57,13.82,13.82,0,0,1-3.3,21Zm-26.17-79c.74.52,1.5,1,2.24,1.54a164.7,164.7,0,0,1,38.38,39c-.08.4-.15.8-.22,1.21l-.85,4.75c-.14-.12-.26-.27-.4-.38a167,167,0,0,1-32.44-35.34Q405.13,389,402,383.54Zm193.92-5c-.23,5.38-.82,10.74-1.55,16.08a176.16,176.16,0,0,1-118,141.71,131.26,131.26,0,0,1-15.59,4.3l-7.89,1.81c-2.64.56-5.31,1-8,1.35a173.49,173.49,0,0,1-17.81,1.59l.68-.5c-5.06.21-10.11.24-15.09.09,2.88-4.85,5.82-9.48,8.57-14.38s5.33-9.87,7.82-14.9a318.59,318.59,0,0,0,13.26-31,316.57,316.57,0,0,0,9.95-32.18c1.21-5.48,2.68-10.91,3.66-16.45l1.5-8.3a18,18,0,0,0,.5-4.27l-.2-4.26a.63.63,0,0,0-.1-.29s-24.86-31-42.28-44.67c-.73-.55-1.45-1.12-2.19-1.66a179.23,179.23,0,0,0-27.7-16.51c-2.74-1.31-5.55-2.54-8.38-3.71a1,1,0,0,0-.21-.14c-5.2-2.15-10.52-4-15.9-5.67-1.72-.56-3.46-1.08-5.26-1.53,0,0,0,0-.07,0a.94.94,0,0,0-.41-.21l-9-2.17c-3-.66-6-1.23-9-1.72-5.67-.92-11.39-1.54-17.12-1.93a171.92,171.92,0,0,1,17.15-49.46,176.21,176.21,0,0,1,31.88-42.94,170.27,170.27,0,0,1,43.41-31.23,168.14,168.14,0,0,1,50.6-16.78,184.14,184.14,0,0,1,58.26,26.51A173.56,173.56,0,0,1,566.39,271q2.26,3.23,4.11,6.41A169.74,169.74,0,0,1,591.75,330c1,5.28,2.32,10.52,2.78,15.9l1,8c.2,2.69.25,5.38.38,8.07s.24,5.59.25,8.38S596.09,375.84,595.92,378.58Z"/></g></g></svg>